<svg width="57" height="56" viewBox="0 0 57 56" fill="none" xmlns="http://www.w3.org/2000/svg">
<path d="M39.3 38.8L34.0884 33.5885M34.0884 33.5885C34.9799 32.697 35.687 31.6387 36.1695 30.4739C36.6519 29.3092 36.9002 28.0608 36.9002 26.8001C36.9002 25.5394 36.6519 24.2911 36.1695 23.1263C35.687 21.9616 34.9799 20.9033 34.0884 20.0118C33.197 19.1203 32.1387 18.4132 30.9739 17.9307C29.8092 17.4483 28.5608 17.2 27.3001 17.2C26.0394 17.2 24.791 17.4483 23.6263 17.9307C22.4615 18.4132 21.4032 19.1203 20.5118 20.0118C18.7114 21.8122 17.7 24.254 17.7 26.8001C17.7 29.3462 18.7114 31.7881 20.5118 33.5885C22.3121 35.3888 24.754 36.4003 27.3001 36.4003C29.8462 36.4003 32.2881 35.3888 34.0884 33.5885Z" stroke="white" stroke-width="2.39998" stroke-linecap="round" stroke-linejoin="round"/>
</svg>
