<svg width="92" height="81" viewBox="0 0 92 81" fill="none" xmlns="http://www.w3.org/2000/svg">
<g id="material-symbols-light:autorenew-rounded">
<path id="Vector" d="M21.2497 40.6442C21.2497 41.7042 21.3386 42.7708 21.5163 43.8442C21.6889 44.9197 21.9833 45.9819 22.3996 47.0308C22.5697 47.5042 22.5507 47.9575 22.3425 48.3908C22.1344 48.8242 21.7968 49.1286 21.3297 49.3042C20.8524 49.493 20.3663 49.503 19.8713 49.3342C19.3763 49.1653 19.0425 48.843 18.8699 48.3675C18.3622 47.1342 17.9966 45.8608 17.7732 44.5475C17.5499 43.2342 17.4394 41.933 17.442 40.6442C17.442 33.6686 20.2216 27.7308 25.7809 22.8308C31.3402 17.9308 38.0799 15.4797 46 15.4775H51.2814L44.6292 9.65749C44.2738 9.34638 44.0835 8.96416 44.0581 8.51083C44.0327 8.05749 44.2231 7.65305 44.6292 7.29749C45.0354 6.94194 45.4847 6.76416 45.9772 6.76416C46.4696 6.76416 46.919 6.94194 47.3251 7.29749L56.418 15.2608C57.0348 15.7986 57.3433 16.4264 57.3433 17.1442C57.3433 17.8619 57.0361 18.4908 56.4218 19.0308L47.3251 26.9908C46.9697 27.3019 46.5331 27.4686 46.0152 27.4908C45.4974 27.513 45.0354 27.3464 44.6292 26.9908C44.2231 26.6353 44.02 26.2419 44.02 25.8108C44.02 25.3797 44.2231 24.9864 44.6292 24.6308L51.2814 18.8108H46C39.1182 18.8108 33.272 20.9297 28.4616 25.1675C23.6511 29.4053 21.2472 34.5642 21.2497 40.6442ZM70.7503 40.3108C70.7503 39.2508 70.6615 38.1842 70.4838 37.1108C70.3112 36.0353 70.0167 34.9742 69.6004 33.9275C69.4303 33.4519 69.4506 32.9975 69.6613 32.5642C69.872 32.1308 70.2084 31.8264 70.6704 31.6508C71.1476 31.4619 71.6223 31.4519 72.0945 31.6208C72.5641 31.7897 72.8852 32.1119 73.0578 32.5875C73.5655 33.823 73.9425 35.0964 74.1887 36.4075C74.435 37.7186 74.5581 39.0197 74.5581 40.3108C74.5581 47.2864 71.7784 53.2242 66.2191 58.1242C60.6598 63.0242 53.9201 65.4753 46 65.4775H40.7225L47.367 71.2975C47.7249 71.6086 47.9153 71.9919 47.9382 72.4475C47.9635 72.8986 47.7732 73.3019 47.367 73.6575C46.9634 74.0131 46.5153 74.1908 46.0229 74.1908C45.5304 74.1908 45.0811 74.0131 44.6749 73.6575L35.582 65.6942C34.9626 65.1586 34.653 64.5308 34.653 63.8108C34.653 63.0908 34.9601 62.463 35.5744 61.9275L44.6711 53.9642C45.0265 53.653 45.4631 53.4864 45.981 53.4642C46.4988 53.4419 46.9608 53.6086 47.367 53.9642C47.7732 54.3197 47.9762 54.713 47.9762 55.1442C47.9762 55.5753 47.7732 55.9686 47.367 56.3242L40.7225 62.1442H46C52.8844 62.1442 58.7306 60.0253 63.5385 55.7875C68.3464 51.5497 70.7503 46.3908 70.7503 40.3108Z" fill="white"/>
</g>
</svg>
