<svg width="57" height="56" viewBox="0 0 57 56" fill="none" xmlns="http://www.w3.org/2000/svg">
<path d="M23.7427 23.257V21.6574C23.7427 20.3957 24.2439 19.1856 25.1361 18.2934C26.0283 17.4012 27.2383 16.9 28.5001 16.9C29.7618 16.9 30.9719 17.4012 31.8641 18.2934C32.7563 19.1856 33.2575 20.3957 33.2575 21.6574V23.2576" stroke="#E6E6E6" stroke-width="1.8" stroke-linecap="round" stroke-linejoin="round"/>
<path d="M18.1597 23.2576L19.3291 34.7824C19.449 35.966 20.0041 37.0629 20.8867 37.8606C21.7693 38.6583 22.9166 39.1 24.1063 39.1H32.8939C34.0835 39.1 35.2308 38.6583 36.1134 37.8606C36.996 37.0629 37.5511 35.966 37.6711 34.7824L38.8405 23.2576H18.1597Z" stroke="#E6E6E6" stroke-width="1.8" stroke-linecap="round" stroke-linejoin="round"/>
</svg>
