<svg width="68" height="48" viewBox="0 0 68 48" fill="none" xmlns="http://www.w3.org/2000/svg">
<path id="Vector" d="M19.8638 47.4294C17.5527 47.4294 15.5849 46.6183 13.9605 44.996C12.336 43.3805 11.5238 41.4138 11.5238 39.096H6.12046C5.64712 39.096 5.25157 38.936 4.93379 38.616C4.61601 38.296 4.45601 37.8994 4.45379 37.426C4.45157 36.9527 4.61157 36.5571 4.93379 36.2394C5.25601 35.9216 5.65157 35.7627 6.12046 35.7627H12.3771C12.9793 34.2805 13.9516 33.076 15.2938 32.1494C16.636 31.2249 18.1571 30.7627 19.8571 30.7627C21.5571 30.7627 23.0793 31.2249 24.4238 32.1494C25.7638 33.076 26.7349 34.2805 27.3371 35.7627H42.7305L50.0505 4.09603H15.5638C15.0905 4.09603 14.6938 3.93603 14.3738 3.61603C14.0538 3.29603 13.8949 2.89936 13.8971 2.42603C13.8993 1.9527 14.0582 1.55714 14.3738 1.23936C14.6893 0.921585 15.086 0.762695 15.5638 0.762695H50.8205C51.6738 0.762695 52.3694 1.10492 52.9071 1.78936C53.4471 2.47381 53.6205 3.23603 53.4271 4.07603L51.5171 12.4294H55.7538C56.6071 12.4294 57.4149 12.6205 58.1771 13.0027C58.9416 13.3827 59.5705 13.9094 60.0638 14.5827L66.0538 22.576C66.5382 23.2249 66.8527 23.9016 66.9971 24.606C67.1438 25.3083 67.1549 26.046 67.0305 26.8194L65.0371 36.9427C64.9127 37.5916 64.5971 38.1127 64.0905 38.506C63.5838 38.8994 63.0082 39.096 62.3638 39.096H60.7538C60.7538 41.4049 59.9449 43.3716 58.3271 44.996C56.7093 46.6205 54.7427 47.4316 52.4271 47.4294C50.1116 47.4271 48.1438 46.616 46.5238 44.996C44.9016 43.3783 44.0905 41.4116 44.0905 39.096H28.1905C28.1905 41.4049 27.3816 43.3716 25.7638 44.996C24.146 46.6205 22.1793 47.4316 19.8638 47.4294ZM47.8138 28.2627H63.3171L63.9071 25.296L56.7805 15.7627H50.7205L47.8138 28.2627ZM43.5371 32.4227L43.9705 30.4894C44.2593 29.2005 44.626 27.6227 45.0705 25.756C45.3216 24.7338 45.5416 23.7894 45.7305 22.9227C45.9171 22.056 46.066 21.3383 46.1771 20.7694L46.6105 18.836C46.8993 17.5471 47.266 15.9694 47.7105 14.1027C48.1549 12.236 48.5216 10.6583 48.8105 9.36936L49.2438 7.43603L50.0505 4.09603L42.7271 35.7627L43.5371 32.4227ZM2.48712 27.4227C2.03157 27.4227 1.65046 27.2627 1.34379 26.9427C1.03712 26.6227 0.883789 26.2271 0.883789 25.756C0.883789 25.2849 1.04268 24.8883 1.36046 24.566C1.67823 24.2438 2.0749 24.0849 2.55046 24.0894H14.1505C14.6238 24.0894 15.0205 24.2494 15.3405 24.5694C15.6605 24.8894 15.8193 25.286 15.8171 25.7594C15.8149 26.2327 15.656 26.6283 15.3405 26.946C15.0249 27.2638 14.6282 27.4227 14.1505 27.4227H2.48712ZM9.15379 15.7694C8.68046 15.7694 8.28379 15.6094 7.96379 15.2894C7.64379 14.9694 7.48379 14.5727 7.48379 14.0994C7.48379 13.626 7.64379 13.2305 7.96379 12.9127C8.28379 12.5949 8.67935 12.436 9.15046 12.436H24.1505C24.6238 12.436 25.0205 12.596 25.3405 12.916C25.6582 13.236 25.8171 13.6327 25.8171 14.106C25.8171 14.5794 25.6582 14.9749 25.3405 15.2927C25.0227 15.6105 24.626 15.7694 24.1505 15.7694H9.15379ZM19.8571 44.096C21.2282 44.096 22.4049 43.606 23.3871 42.626C24.3671 41.6438 24.8571 40.4671 24.8571 39.096C24.8571 37.7249 24.3671 36.5483 23.3871 35.566C22.4071 34.5838 21.2305 34.0938 19.8571 34.096C18.4838 34.0983 17.3071 34.5883 16.3271 35.566C15.3471 36.5483 14.8571 37.7249 14.8571 39.096C14.8571 40.4671 15.3471 41.6438 16.3271 42.626C17.3093 43.606 18.486 44.096 19.8571 44.096ZM52.4238 44.096C53.7949 44.096 54.9705 43.606 55.9505 42.626C56.9305 41.6438 57.4205 40.4671 57.4205 39.096C57.4205 37.7249 56.9305 36.5483 55.9505 35.566C54.9705 34.5838 53.7938 34.0938 52.4205 34.096C51.0471 34.0983 49.8716 34.5883 48.8938 35.566C47.9116 36.5483 47.4205 37.7249 47.4205 39.096C47.4205 40.4671 47.9105 41.6438 48.8905 42.626C49.8727 43.606 51.0505 44.096 52.4238 44.096Z" fill="white"/>
</svg>
