<svg width="80" height="70" viewBox="0 0 80 70" fill="none" xmlns="http://www.w3.org/2000/svg">
<path id="Vector" d="M51.5101 25.1658L28.4865 45.0233M51.5101 45.0233H51.4717M28.5249 25.1658H28.4865M23.4674 60.3003C25.7314 60.3003 26.8672 60.3003 27.8994 60.6313C28.0452 60.6776 28.1872 60.7283 28.3254 60.7835C29.3269 61.1807 30.1289 61.8691 31.7328 63.2525C35.4243 66.4363 37.27 68.0282 39.5378 68.1771C39.8448 68.197 40.1518 68.197 40.4588 68.1771C42.7266 68.0282 44.5723 66.4363 48.2638 63.2525C49.8678 61.8691 50.6697 61.1807 51.6713 60.7835C51.8094 60.7283 51.9501 60.6776 52.0934 60.6313C53.1294 60.3003 54.2614 60.3003 56.5292 60.3003H56.9513C62.7341 60.3003 65.6274 60.3003 67.4271 58.7514C69.2267 57.2025 69.2229 54.7038 69.2229 49.7163V49.3522C69.2229 47.3996 69.2229 46.4199 69.6066 45.5296C69.6604 45.4039 69.7192 45.2814 69.7831 45.1623C70.2436 44.2985 71.0418 43.6068 72.6457 42.2234C76.3372 39.0395 78.1829 37.4476 78.3556 35.4917C78.3786 35.2269 78.3786 34.9621 78.3556 34.6974C78.1829 32.7414 76.3372 31.1495 72.6457 27.9657C71.0418 26.5823 70.2436 25.8906 69.7831 25.0268L69.6066 24.6627C69.2229 23.7691 69.2229 22.7928 69.2229 20.8368V20.4728C69.2229 15.4852 69.2229 12.9898 67.4271 11.4376C65.6312 9.88543 62.7341 9.88873 56.9513 9.88873H56.5292C54.2653 9.88873 53.1294 9.88873 52.0972 9.55778L51.6713 9.40553C50.6697 9.00838 49.8678 8.31999 48.2638 6.93659C44.5723 3.75277 42.7266 2.16086 40.4588 2.01193C40.1521 1.99602 39.8445 1.99602 39.5378 2.01193C37.27 2.16086 35.4243 3.75277 31.7328 6.93659C30.1289 8.31999 29.3269 9.01169 28.3254 9.40553L27.9033 9.55778C26.8672 9.88873 25.7352 9.88873 23.4674 9.88873H23.0453C17.2625 9.88873 14.3692 9.88874 12.5696 11.4376C10.7699 12.9865 10.7737 15.4852 10.7737 20.4728V20.8368C10.7737 22.7895 10.7737 23.7691 10.39 24.6594C10.3337 24.7852 10.2749 24.9076 10.2135 25.0268C9.753 25.8906 8.95485 26.5823 7.35087 27.9657C3.65943 31.1495 1.8137 32.7414 1.64102 34.6974C1.62259 34.9619 1.62259 35.2271 1.64102 35.4917C1.8137 37.4476 3.65943 39.0395 7.35087 42.2234C8.95485 43.6068 9.75684 44.2985 10.2135 45.1623C10.2774 45.2814 10.3363 45.4028 10.39 45.5263C10.7737 46.4199 10.7737 47.3962 10.7737 49.3522V49.7163C10.7737 54.7038 10.7737 57.1992 12.5696 58.7514C14.3654 60.3036 17.2625 60.3003 23.0453 60.3003H23.4674Z" stroke="#E6E6E6" stroke-width="3" stroke-linecap="round" stroke-linejoin="round"/>
</svg>
